<svg xmlns="http://www.w3.org/2000/svg" viewBox="0 0 160 160" role="img" aria-label="Atelier Roma">
  <defs>
    <linearGradient id="atelier" x1="20" y1="20" x2="140" y2="140" gradientUnits="userSpaceOnUse">
      <stop stop-color="#2d6cff"/>
      <stop offset="1" stop-color="#61e4ff"/>
    </linearGradient>
  </defs>
  <rect width="160" height="160" rx="34" fill="#07111e"/>
  <rect x="18" y="18" width="124" height="124" rx="30" fill="url(#atelier)"/>
  <path d="M52 48h56v65c0 8-6 14-14 14H66c-8 0-14-6-14-14V48Z" fill="#f8fff9"/>
  <path d="M64 48c0-9 7-16 16-16s16 7 16 16" fill="none" stroke="#061006" stroke-width="8" stroke-linecap="round"/>
  <path d="M67 68h26M67 84h26M67 100h18" stroke="#061006" stroke-width="7" stroke-linecap="round"/>
  <path d="M112 53 130 71M130 53 112 71" stroke="#061006" stroke-width="6" stroke-linecap="round"/>
  <circle cx="111" cy="52" r="7" fill="#00df38"/>
  <circle cx="131" cy="52" r="7" fill="#00df38"/>
</svg>
