<svg xmlns="http://www.w3.org/2000/svg" viewBox="0 0 160 160" role="img" aria-label="Bar La Esquina">
  <defs>
    <linearGradient id="bg" x1="18" y1="18" x2="142" y2="142" gradientUnits="userSpaceOnUse">
      <stop stop-color="#00df38"/>
      <stop offset="1" stop-color="#0b3d1b"/>
    </linearGradient>
  </defs>
  <rect width="160" height="160" rx="34" fill="#061006"/>
  <rect x="16" y="16" width="128" height="128" rx="30" fill="url(#bg)"/>
  <path d="M49 55h62l-8 55H57L49 55Z" fill="#f8fff9"/>
  <path d="M57 67h46l-5 34H62l-5-34Z" fill="#061006"/>
  <path d="M68 48c4-12 20-14 27-5 4 5 2 12-5 14" fill="none" stroke="#f8fff9" stroke-width="8" stroke-linecap="round"/>
  <path d="M59 115h42M80 110v17M62 128h36" stroke="#061006" stroke-width="8" stroke-linecap="round"/>
  <circle cx="80" cy="83" r="8" fill="#00df38"/>
  <path d="M118 42h18" stroke="#f8fff9" stroke-width="7" stroke-linecap="round"/>
  <path d="M127 42 107 68" stroke="#f8fff9" stroke-width="6" stroke-linecap="round"/>
</svg>
