<svg xmlns="http://www.w3.org/2000/svg" viewBox="0 0 160 160" role="img" aria-label="Centro de belleza Sofia Ortega">
  <defs>
    <linearGradient id="beauty" x1="18" y1="18" x2="142" y2="142" gradientUnits="userSpaceOnUse">
      <stop stop-color="#f13b92"/>
      <stop offset="1" stop-color="#00df38"/>
    </linearGradient>
  </defs>
  <rect width="160" height="160" rx="34" fill="#120711"/>
  <rect x="18" y="18" width="124" height="124" rx="30" fill="url(#beauty)"/>
  <path d="M58 82c0-23 14-41 33-41 18 0 31 15 31 35 0 25-18 46-44 46-15 0-27-7-35-18 9-2 15-10 15-22Z" fill="#fff3f8"/>
  <path d="M70 80c6 6 18 6 24 0" stroke="#061006" stroke-width="6" stroke-linecap="round"/>
  <circle cx="72" cy="68" r="4" fill="#061006"/>
  <circle cx="94" cy="68" r="4" fill="#061006"/>
  <path d="M112 34 119 52l19 7-19 7-7 20-7-20-19-7 19-7 7-18Z" fill="#061006"/>
  <path d="M47 45 52 57l13 5-13 5-5 14-5-14-13-5 13-5 5-12Z" fill="#f8fff9"/>
</svg>
