<svg xmlns="http://www.w3.org/2000/svg" viewBox="0 0 160 160" role="img" aria-label="Restaurante Brasa 21">
  <defs>
    <linearGradient id="fire" x1="18" y1="18" x2="142" y2="142" gradientUnits="userSpaceOnUse">
      <stop stop-color="#ff7a1a"/>
      <stop offset="1" stop-color="#00df38"/>
    </linearGradient>
  </defs>
  <rect width="160" height="160" rx="34" fill="#0e0805"/>
  <rect x="18" y="18" width="124" height="124" rx="30" fill="url(#fire)"/>
  <path d="M80 35c6 17-11 23-3 39 4-9 13-16 24-24-2 20 19 27 19 50 0 19-16 33-40 33s-40-14-40-33c0-24 27-37 40-65Z" fill="#061006"/>
  <path d="M67 109c0-13 10-22 20-34 2 14 16 19 16 34 0 11-8 19-18 19s-18-8-18-19Z" fill="#ffd166"/>
  <path d="M35 52v52M47 52v52M59 52v52M35 72h24" stroke="#f8fff9" stroke-width="7" stroke-linecap="round"/>
  <path d="M94 114h33" stroke="#f8fff9" stroke-width="7" stroke-linecap="round"/>
</svg>
