<svg xmlns="http://www.w3.org/2000/svg" viewBox="0 0 160 160" role="img" aria-label="Nails Studio">
  <defs>
    <linearGradient id="pink" x1="20" y1="20" x2="140" y2="140" gradientUnits="userSpaceOnUse">
      <stop stop-color="#f13b92"/>
      <stop offset="1" stop-color="#ff9b52"/>
    </linearGradient>
  </defs>
  <rect width="160" height="160" rx="34" fill="#120711"/>
  <rect x="18" y="18" width="124" height="124" rx="30" fill="url(#pink)"/>
  <path d="M50 94c0-26 13-48 30-48s30 22 30 48c0 19-12 31-30 31S50 113 50 94Z" fill="#fff3f8"/>
  <path d="M63 94c0-17 7-32 17-32s17 15 17 32c0 11-7 18-17 18s-17-7-17-18Z" fill="#f13b92"/>
  <path d="M41 56h18l7 52H48L41 56Z" fill="#061006"/>
  <path d="M40 48h20" stroke="#fff3f8" stroke-width="8" stroke-linecap="round"/>
  <path d="M101 53c10 6 17 17 18 32" stroke="#fff3f8" stroke-width="7" stroke-linecap="round"/>
</svg>
